<svg xmlns="http://www.w3.org/2000/svg"
shape-rendering="geometricPrecision"
width="4000" height="4000" viewBox="0 0 829 829"><rect width="100%" height="100%" fill="#FBFBF3" />
  <metadata>null</metadata>

<path d="
M 37.396 359.559
C 39.588 354.065 43.286 348.614 47.029 344.071
C 48.67 342.08 50.363 339.92 52.498 338.435
C 55.281 336.498 58.519 334.989 61.522 333.419
C 62.875 332.713 64.455 332.214 65.641 331.238
C 65.902 330.155 65.821 329.03 66.236 327.977
C 67.315 325.245 69.549 322.815 71.242 320.448
C 72.265 319.017 73.112 317.23 74.579 316.19
C 76.165 315.066 78.239 314.458 79.992 313.633
C 84.338 311.591 88.771 309.729 93.11 307.679
C 98.599 305.086 104.41 302.196 110.212 300.391
C 112.496 299.68 115.039 299.788 117.399 299.499
C 122.087 298.924 126.783 298.32 131.462 297.671
C 148.839 295.262 166.294 293.209 183.635 290.554
C 193.006 289.118 202.477 287.963 211.905 286.967
C 214.433 286.7 216.952 286.386 219.488 286.23
C 220.605 286.161 222.063 285.736 223.12 286.141
C 223.745 287.748 222.441 288.114 221.024 288.668
C 218.612 289.612 216.196 290.534 213.786 291.479
C 205.415 294.762 196.852 297.624 188.533 301.032
C 186.532 301.852 184.466 302.609 182.422 303.313
C 181.577 303.604 180.559 303.729 180.196 304.598
C 183.599 305.32 187.461 305.206 190.951 305.508
C 197.24 306.052 203.503 306.831 209.803 307.259
C 212.414 307.436 215.014 307.694 217.624 307.883
C 218.789 307.967 220.394 307.898 221.343 308.645
C 220.949 310.043 219.298 311.2 218.286 312.18
C 215.737 314.646 213.27 318.189 210.274 320.072
C 208.522 320.491 206.512 319.921 204.713 320.018
C 202.124 320.159 199.588 320.484 197.018 320.721
C 198.848 323.613 202.497 324.759 204.022 327.977
C 205.181 330.424 205.445 333.37 205.958 336.006
C 206.697 339.808 207.608 343.616 208.442 347.403
C 211.469 361.158 214.344 374.946 217.108 388.757
C 218.407 395.25 219.638 401.756 221.012 408.233
C 221.561 410.818 223.054 414.242 222.854 416.859
C 222.117 418.106 220.524 419.107 219.461 420.086
C 217.037 422.319 214.644 424.589 212.144 426.738
C 205.241 432.674 198.522 438.893 191.798 445.033
C 166.927 467.743 141.077 489.42 116.448 512.39
C 108.256 520.031 99.576 527.168 91.214 534.622
C 89.055 536.547 87 538.616 84.788 540.475
C 83.979 541.154 83.093 542.074 81.963 542.003
C 79.921 541.004 80.024 536.074 79.641 534.136
C 78.105 526.372 76.395 518.636 75.031 510.838
C 73.423 501.649 71.834 492.376 69.916 483.248
C 69.34 480.508 68.916 477.739 68.383 474.99
C 68.119 473.629 67.567 471.9 67.916 470.519
C 68.376 468.699 69.715 466.897 70.531 465.202
C 72.139 461.859 73.708 458.497 75.34 455.165
C 80.588 444.455 85.847 433.715 90.944 422.932
C 92.655 419.311 94.37 415.692 96.09 412.076
C 96.806 410.571 98.265 408.662 98.425 406.983
C 98.527 405.91 97.805 404.858 97.367 403.937
C 96.38 401.861 95.345 399.813 94.281 397.775
C 91.481 392.417 88.639 386.65 84.662 382.056
C 81.943 378.914 77.864 376.781 75.441 373.442
C 73.711 373.323 71.372 374.272 69.641 374.628
C 66.322 375.311 63.065 375.798 59.668 375.677
C 57.685 375.607 55.668 375.434 53.71 375.108
C 52.774 374.952 51.384 374.488 50.505 374.84
C 48.501 377.766 47.223 381.299 46.15 384.661
C 45.682 386.129 46.016 388.42 44.023 388.302
C 42.4 386.783 41.72 383.819 40.954 381.786
C 39.048 376.724 38.158 371.466 37.575 366.118
C 37.345 364 36.872 361.658 37.396 359.559 Z
M 41.445 361.601
C 41.137 365.25 42.228 369.346 42.78 372.95
C 42.98 374.262 43.211 376.482 44.042 377.507
C 44.978 376.943 45.572 374.852 46.123 373.887
C 47.324 371.78 48.907 369.233 50.905 367.803
C 53.33 366.068 57.14 366.857 59.943 366.159
C 63.353 365.31 66.405 362.972 69.51 361.388
C 70.365 360.952 71.364 360.355 72.3 360.134
C 72.486 360.09 74.284 359.85 74.192 359.713
C 73.46 358.701 71.203 357.767 70.068 357.152
C 66.677 355.313 62.959 353.753 60.078 351.134
C 58.357 349.569 56.914 347.674 55.498 345.84
C 54.943 345.122 54.281 343.972 53.415 343.64
C 48.824 348.869 43.286 354.661 41.445 361.601 Z
M 100.983 361.151
C 102.111 360.979 103.22 360.691 104.348 360.528
C 104.583 359.919 103.413 359.647 103.058 359.497
C 101.611 358.887 100.331 357.766 98.906 357.066
C 96.222 355.749 93.387 356.05 90.511 355.724
C 87.002 355.325 84.028 354.332 81.031 352.462
C 79.707 351.446 77.844 349.691 77.332 348.063
C 76.945 346.83 77.331 345.553 76.798 344.335
C 75.792 342.039 73.991 339.965 72.483 337.983
C 71.665 336.907 69.95 334.087 68.59 333.791
C 64.897 336.446 60.754 338.345 56.965 340.826
C 59.691 344.674 62.399 349.001 66.7 351.256
C 69.133 352.532 71.852 353.161 74.293 354.456
C 75.323 355.002 76.362 355.452 76.86 356.568
C 77.178 357.287 77.575 357.962 77.836 358.705
C 78.432 359.215 81.361 358.649 82.244 358.578
C 86.378 358.247 90.459 357.643 94.579 357.252
C 96.43 357.076 98.181 357.891 99.809 358.702
C 100.438 359.016 102.258 359.781 100.996 360.306
C 93.244 361.295 85.263 360.953 77.565 362.431
C 72.256 363.45 68.114 367.21 63.163 369.103
C 59.93 370.338 56.544 369.624 53.412 370.645
C 52.945 371.37 56.75 371.59 57.51 371.645
C 61.756 371.95 66.027 370.897 70.184 370.186
C 71.509 369.959 73.909 370.144 75.014 369.34
C 75.91 368.687 76.264 367.341 76.884 366.456
C 77.694 365.297 78.806 364.593 80.111 364.086
C 84.498 362.383 89.447 362.471 94.074 362.153
C 96.375 361.994 98.686 361.442 100.983 361.151 Z
M 70.303 329.645
C 70.575 330.608 71.889 331.528 72.568 332.286
C 74.296 334.211 75.796 336.255 77.345 338.321
C 77.92 339.088 78.598 340.63 79.485 341.021
C 81.363 335.78 83.569 329.614 88.498 326.407
C 91.341 324.557 95.635 324.479 98.908 324.045
C 105.342 323.193 112.065 322.595 118.362 321.017
C 123.324 319.774 128.219 317.707 133.057 316.036
C 142.225 312.87 151.446 309.817 160.575 306.539
C 168.512 303.688 176.383 300.508 184.379 297.839
C 187.022 296.956 189.567 295.768 192.216 294.905
C 193.179 294.591 194.184 294.403 195.117 294.009
C 195.188 293.978 196.378 293.48 196.317 293.438
C 195.706 293.022 194.352 293.345 193.698 293.503
C 191.933 293.931 190.022 294.037 188.219 294.282
C 180.545 295.328 172.882 296.461 165.179 297.339
C 153.894 298.625 142.689 300.508 131.43 302.003
C 124.833 302.879 117.55 302.883 111.143 304.682
C 105.572 306.246 99.958 309.489 94.685 311.888
C 90.684 313.708 86.64 315.435 82.66 317.304
C 80.838 318.159 78.767 318.723 77.199 320.027
C 74.357 322.391 72.086 326.447 70.303 329.645 Z
M 72.4 471.057
C 72.039 472.806 72.699 474.735 73.034 476.453
C 73.682 479.786 74.357 483.112 74.94 486.458
C 76.798 497.121 78.907 507.734 80.892 518.373
C 81.464 521.436 82.157 524.477 82.728 527.541
C 83.037 529.195 83.226 531.442 84.149 532.833
C 86.715 527.237 90.209 521.924 93.445 516.69
C 94.685 514.685 97.284 511.769 97.607 509.423
C 97.918 507.165 96.969 504.293 96.609 502.058
C 95.705 496.445 94.635 490.862 93.661 485.262
C 93.306 483.221 92.223 480.435 92.612 478.371
C 92.937 476.646 95.304 474.489 96.302 473.021
C 99.369 468.512 102.539 464.074 105.682 459.617
C 106.605 458.307 107.544 457.009 108.551 455.762
C 109.063 455.127 109.837 454.46 109.823 453.58
C 106.816 455.656 102.648 458.052 98.993 458.502
C 97.939 456.067 98.431 452.601 98.403 450.002
C 98.334 443.669 98.386 437.333 98.387 430.999
C 98.387 427.851 98.181 424.668 98.336 421.525
C 98.367 420.887 98.858 417.627 97.839 418.814
C 95.777 422.697 94.149 426.81 92.223 430.763
C 85.667 444.219 79.06 457.655 72.4 471.057 Z
M 95.435 338.482
C 94.902 337.268 95.711 336.376 96.247 335.328
C 97.426 333.018 99.536 330.686 100.441 328.347
C 99.43 328.081 97.852 328.538 96.804 328.635
C 94.521 328.846 92.321 329.024 90.287 330.208
C 87.07 332.082 84.681 336.939 83.828 340.435
C 83.032 342.635 81.435 344.006 79.612 345.357
C 82.974 349.152 87.13 351.491 92.119 352.475
C 95.37 353.116 98.721 352.995 101.784 354.426
C 104.232 355.57 108.819 358.238 107.894 361.45
C 107.103 363.524 105.164 364.698 103.164 365.354
C 102.345 365.622 101.061 364.858 100.589 365.579
C 100.46 365.776 101.171 366.458 101.394 366.639
C 102.493 367.538 103.703 368.313 104.829 369.179
C 109.703 372.924 114.426 376.931 119.192 380.814
C 120.721 382.059 122.195 383.594 123.966 384.486
C 125.672 385.345 127.616 385.674 129.437 386.198
C 132.546 387.093 135.62 388.138 138.703 389.116
C 141.021 389.851 144.427 391.849 146.861 391.696
C 148.311 391.605 150.308 389.95 151.576 389.259
C 154.825 387.486 158.14 385.79 161.432 384.098
C 163.657 382.954 165.84 381.738 168.098 380.656
C 169.319 380.072 170.82 379.805 171.676 378.668
C 173.301 376.509 174.185 373.525 175.503 371.148
C 175.99 370.269 177.113 368.999 177.165 367.976
C 177.203 367.226 176.571 366.322 176.316 365.631
C 175.556 363.573 174.691 361.552 173.948 359.489
C 172.422 355.252 171.093 350.194 168.137 346.698
C 165.187 343.208 160.403 340.892 156.689 338.287
C 153.633 336.144 150.285 333.106 146.47 332.43
C 144.255 332.037 141.23 333.602 139.311 334.573
C 135.424 336.538 132.057 339.317 128.339 341.556
C 125.55 343.235 121.82 344.782 119.564 347.132
C 119.455 347.708 121.717 347.241 122.22 347.222
C 124.594 347.132 127.22 346.991 129.571 347.361
C 130.28 347.472 131.644 347.815 131.295 348.77
C 128.67 350.209 124.918 350.245 121.991 350.412
C 115.91 350.76 108.36 349.728 103.202 346.262
C 100.176 344.229 97.812 341.2 95.435 338.482 Z
M 79.998 368.951
C 79.86 369.201 79.721 369.451 79.583 369.701
C 86.69 372.458 94.191 374.32 101.416 376.781
C 105.067 378.025 108.702 379.794 112.394 380.827
C 112.248 380.173 110.855 379.514 110.357 379.102
C 108.47 377.545 106.457 376.156 104.526 374.655
C 102.34 372.956 100.154 371.176 98.162 369.251
C 97.051 368.178 95.986 366.572 94.583 365.881
C 93.42 365.308 91.817 365.636 90.567 365.767
C 86.744 366.169 83.275 366.904 79.998 368.951 Z
M 84.761 375.579
C 86.123 377.993 88.572 379.966 90.21 382.26
C 93.241 386.503 95.67 391.175 98.176 395.737
C 99.628 398.379 101.455 401.159 102.376 404.041
C 102.941 405.811 102.742 407.851 102.755 409.688
C 102.781 413.126 102.74 416.563 102.743 420.001
C 102.753 430.639 103.571 441.625 102.743 452.22
C 103.039 452.601 103.861 451.783 104.219 451.556
C 105.87 450.509 107.592 449.578 109.341 448.699
C 114.476 446.12 119.494 443.216 124.508 440.406
C 126.589 439.24 129.003 438.422 130.966 437.082
C 131.781 435.991 131.642 433.73 131.816 432.402
C 132.271 428.94 132.956 425.501 133.505 422.052
C 134.161 417.922 134.682 413.817 135.04 409.652
C 135.213 407.639 135.613 405.13 135.147 403.145
C 134.414 400.02 130.282 397.073 128.154 394.854
C 126.139 392.752 124.045 389.813 121.483 388.367
C 119.452 387.221 116.899 386.893 114.712 386.11
C 107.965 383.694 101.097 381.614 94.38 379.118
C 91.361 377.996 87.405 377.423 84.761 375.579 Z
M 92.491 526.544
C 92.322 526.836 92.003 527.47 92.394 527.741
C 92.66 527.925 94.297 526.012 94.519 525.793
C 96.551 523.79 98.876 522.023 100.988 520.095
C 106.892 514.708 113.006 509.547 118.913 504.158
C 129.989 494.05 141.248 484.034 152.547 474.177
C 158.893 468.64 165.755 463.234 171.653 457.232
C 172.555 454.636 172.262 451.365 172.586 448.641
C 173.434 441.515 173.812 434.332 174.776 427.22
C 175.107 424.775 175.245 422.304 175.581 419.861
C 175.691 419.063 176.117 417.692 175.605 417.047
C 169.226 420.783 162.744 424.391 156.227 427.89
C 154.227 428.963 152.288 430.174 150.257 431.185
C 148.89 431.865 147.054 432.5 145.981 433.61
C 144.099 435.558 142.865 439.004 141.533 441.378
C 138.377 446.997 135.167 452.583 131.985 458.187
C 123.683 472.806 115.263 487.356 106.932 501.957
C 103.964 507.158 100.935 512.321 97.942 517.508
C 96.179 520.562 94.63 523.725 92.491 526.544 Z
M 97.409 479.014
C 96.566 480.875 97.733 483.927 98.099 485.877
C 99.172 491.596 100.268 497.315 101.257 503.048
C 101.431 503.141 102.072 501.593 102.197 501.386
C 103.159 499.795 104.017 498.139 104.961 496.535
C 109.013 489.647 112.768 482.595 116.829 475.713
C 122.412 466.254 127.741 456.64 133.135 447.076
C 134.358 444.906 135.519 442.696 136.849 440.589
C 137.153 440.108 138.579 438.726 138.194 438.141
C 133.791 440.836 129.155 443.242 124.612 445.708
C 122.561 446.821 120.111 447.647 118.418 449.302
C 115.225 452.426 112.912 456.965 110.375 460.626
C 106.106 466.79 101.837 472.963 97.409 479.014 Z
M 113.68 328.655
C 112.515 329.723 111.771 331.683 112.939 333.029
C 114.11 332.813 115.249 332.393 116.42 332.205
C 119.308 331.989 117.926 336.407 117.171 337.856
C 115.492 341.08 112.473 342.557 108.892 341.999
C 104.986 341.39 103.007 336.998 103.771 333.47
C 103.954 332.627 105.158 330.352 104.763 329.613
C 103.264 331.004 101.549 333.466 101.448 335.592
C 101.278 339.169 106.095 343.259 109.193 344.198
C 112.374 345.16 116.146 344.066 118.781 342.218
C 122.059 339.918 123.626 335.474 122.328 331.633
C 121.068 327.903 116.83 325.766 113.68 328.655 Z
M 124.621 323.564
C 127.46 325.025 131.32 325.1 134.44 325.667
C 140.702 326.804 146.922 328.069 153.197 329.139
C 166.942 331.484 180.674 334.048 194.373 336.656
C 197.183 337.191 199.976 338.348 202.765 338.773
C 200.511 336.128 201.584 331.677 199.73 328.894
C 198.466 326.996 195.873 325.648 194.198 324.099
C 189.076 319.361 183.682 315.519 177.642 311.983
C 175.519 310.74 172.82 308.24 170.463 307.707
C 166.814 308.776 163.276 310.325 159.673 311.551
C 152.749 313.905 145.758 316.076 138.872 318.543
C 136.129 319.525 133.398 320.483 130.618 321.356
C 128.641 321.977 126.359 322.428 124.621 323.564 Z
M 125.242 327.91
C 125.166 327.997 125.09 328.083 125.014 328.17
C 127.09 331.704 126.827 334.169 126.321 338.02
C 128.459 337.104 130.299 335.332 132.328 334.172
C 134.289 333.052 136.647 332.257 138.48 331.038
C 137.858 330.27 135.682 330.228 134.679 330.043
C 131.514 329.461 128.367 328.666 125.242 327.91 Z
M 131.983 391.637
C 133.662 395.045 138.212 397.411 139.341 401.071
C 140.045 403.356 139.306 406.847 139.25 409.25
C 139.059 417.47 137.243 425.482 136.282 433.622
C 136.359 434.07 137.844 432.864 138.244 432.617
C 139.386 431.912 140.62 431.395 141.827 430.805
C 143.376 430.047 143.968 428.279 144.711 426.826
C 146.05 424.211 147.622 421.71 149.052 419.145
C 152.702 412.6 156.201 405.977 159.928 399.473
C 161.653 396.463 163.307 393.43 164.968 390.383
C 165.737 388.97 166.893 387.747 167.399 386.214
C 166.166 385.858 163.16 388.149 162.075 388.77
C 158.783 390.657 155.326 392.252 151.907 393.891
C 150.497 394.567 149.1 395.724 147.589 396.131
C 145.925 396.58 143.823 395.527 142.294 394.956
C 138.938 393.702 135.5 392.33 131.983 391.637 Z
M 150.9 425.098
C 150.839 425.296 150.778 425.494 150.717 425.692
C 151.357 425.937 152.492 424.748 153.02 424.405
C 154.863 423.206 156.847 422.237 158.779 421.197
C 164.813 417.947 170.741 414.495 176.779 411.255
C 179.587 409.748 183.459 408.476 185.854 406.387
C 186.482 404.725 186.088 402.152 186.211 400.383
C 186.383 397.897 187.168 395.01 186.781 392.548
C 186.182 388.736 183.794 384.556 182.376 380.962
C 181.455 378.627 180.887 375.527 179.529 373.458
C 178.269 375.296 177.435 377.65 176.311 379.62
C 173.033 385.365 169.7 391.042 166.577 396.875
C 161.502 406.353 155.743 415.508 150.9 425.098 Z
M 159.458 334.536
C 160.387 335.808 161.595 336.296 162.853 337.19
C 165.642 339.173 169.095 340.933 171.582 343.265
C 174.237 345.753 174.062 350.462 176.666 352.818
C 177.562 353.629 179.095 353.927 180.188 354.385
C 182.105 355.19 183.982 356.106 185.831 357.056
C 193.243 360.861 200.679 364.89 208.244 368.363
C 206.443 362.374 205.645 355.908 204.326 349.783
C 203.868 347.656 203.928 344.968 202.956 343.011
C 193.39 340.72 183.674 338.849 173.987 337.125
C 170.743 336.548 167.486 336.037 164.238 335.488
C 162.658 335.22 160.925 335.182 159.458 334.536 Z
M 176.965 448.61
C 176.825 449.844 176.476 451.477 176.736 452.681
C 177.514 452.595 178.626 450.766 179.199 450.224
C 181.409 448.131 183.722 446.155 185.981 444.116
C 193.084 437.703 200.284 431.398 207.383 424.979
C 209.48 423.084 211.627 421.213 213.656 419.245
C 214.269 418.651 215.435 418.05 215.787 417.281
C 213.179 415.954 209.711 415.616 206.888 414.825
C 202.66 413.642 198.397 412.638 194.14 411.571
C 192.36 411.124 190.541 410.345 188.692 410.294
C 186.104 411.073 183.126 412.923 180.837 414.395
C 179.787 417.367 179.914 421.115 179.537 424.241
C 178.559 432.347 178.091 440.527 176.965 448.61 Z
M 178.716 358.786
C 178.943 361.047 180.581 363.395 181.319 365.562
C 183.392 371.647 185.935 377.577 188.221 383.585
C 189.14 385.998 190.65 388.524 191.187 391.047
C 191.839 394.114 190.853 398.552 190.498 401.67
C 190.365 402.839 189.775 404.91 190.419 405.952
C 199.442 408.033 208.352 411.352 217.465 412.944
C 217.436 410.986 216.697 408.934 216.289 407.017
C 215.573 403.659 214.884 400.287 214.222 396.918
C 213.172 391.576 212.1 386.227 211.11 380.875
C 210.669 378.494 210.511 375.945 209.861 373.622
C 198.993 370.036 189.299 363.079 178.716 358.786 Z
M 182.905 309.49
C 182.901 309.673 182.896 309.857 182.892 310.041
C 185.065 311.735 187.724 313.071 190.014 314.704
C 190.891 315.329 191.896 316.595 192.972 316.79
C 198.356 315.376 203.517 316.453 208.909 315.744
C 209.766 314.825 210.524 313.827 211.395 312.922
C 211.662 312.644 212.439 312.155 212.192 311.779
C 202.463 310.827 192.66 310.186 182.905 309.49 Z"
opacity="1" fill="rgb(9,24,40)" fill-rule="evenodd" />
<path d="
M 100.996 360.306
C 101.059 361.03 101.131 360.757 100.983 361.151
C 98.686 361.442 96.375 361.994 94.074 362.153
C 89.447 362.471 84.498 362.383 80.111 364.086
C 78.806 364.593 77.694 365.297 76.884 366.456
C 76.264 367.341 75.91 368.687 75.014 369.34
C 73.909 370.144 71.509 369.959 70.184 370.186
C 66.027 370.897 61.756 371.95 57.51 371.645
C 56.75 371.59 52.945 371.37 53.412 370.645
C 56.544 369.624 59.93 370.338 63.163 369.103
C 68.114 367.21 72.256 363.45 77.565 362.431
C 85.263 360.953 93.244 361.295 100.996 360.306 Z"
opacity="1" fill="rgb(196,177,153)" fill-rule="evenodd" />
<path d="
M 81.031 352.462
C 79.813 352.4 77.261 353.849 76.76 355.002
C 76.518 355.561 77.201 356.081 76.86 356.568
C 76.362 355.452 75.323 355.002 74.293 354.456
C 71.852 353.161 69.133 352.532 66.7 351.256
C 62.399 349.001 59.691 344.674 56.965 340.826
C 60.754 338.345 64.897 336.446 68.59 333.791
C 69.95 334.087 71.665 336.907 72.483 337.983
C 73.991 339.965 75.792 342.039 76.798 344.335
C 77.331 345.553 76.945 346.83 77.332 348.063
C 77.844 349.691 79.707 351.446 81.031 352.462 Z
M 64.408 343.55
C 62.571 348.179 70.784 350.842 72.41 346.169
C 74.161 341.138 66.209 339.012 64.408 343.55 Z"
opacity="1" fill="rgb(229,201,150)" fill-rule="evenodd" />
<path d="
M 64.408 343.55
C 66.209 339.012 74.161 341.138 72.41 346.169
C 70.784 350.842 62.571 348.179 64.408 343.55 Z"
opacity="1" fill="rgb(3,14,34)" fill-rule="evenodd" />
<path d="
M 95.435 338.482
C 94.566 338.247 93.374 338.998 92.437 339.135
C 90.04 339.486 85.77 338.863 83.828 340.435
C 84.681 336.939 87.07 332.082 90.287 330.208
C 92.321 329.024 94.521 328.846 96.804 328.635
C 97.852 328.538 99.43 328.081 100.441 328.347
C 99.536 330.686 97.426 333.018 96.247 335.328
C 95.711 336.376 94.902 337.268 95.435 338.482 Z"
opacity="1" fill="rgb(172,142,99)" fill-rule="evenodd" />
<path d="
M 116.42 332.205
C 116.461 331.641 114.204 328.563 113.68 328.655
C 116.83 325.766 121.068 327.903 122.328 331.633
C 123.626 335.474 122.059 339.918 118.781 342.218
C 116.146 344.066 112.374 345.16 109.193 344.198
C 106.095 343.259 101.278 339.169 101.448 335.592
C 101.549 333.466 103.264 331.004 104.763 329.613
C 105.158 330.352 103.954 332.627 103.771 333.47
C 103.007 336.998 104.986 341.39 108.892 341.999
C 112.473 342.557 115.492 341.08 117.171 337.856
C 117.926 336.407 119.308 331.989 116.42 332.205 Z"
opacity="1" fill="rgb(223,195,159)" fill-rule="evenodd" />
<path d="
M 176.965 448.61
C 178.091 440.527 178.559 432.347 179.537 424.241
C 179.914 421.115 179.787 417.367 180.837 414.395
C 183.126 412.923 186.104 411.073 188.692 410.294
C 190.541 410.345 192.36 411.124 194.14 411.571
C 198.397 412.638 202.66 413.642 206.888 414.825
C 209.711 415.616 213.179 415.954 215.787 417.281
C 215.435 418.05 214.269 418.651 213.656 419.245
C 211.627 421.213 209.48 423.084 207.383 424.979
C 200.284 431.398 193.084 437.703 185.981 444.116
C 183.722 446.155 181.409 448.131 179.199 450.224
C 178.626 450.766 177.514 452.595 176.736 452.681
C 176.476 451.477 176.825 449.844 176.965 448.61 Z"
opacity="1" fill="rgb(187,148,102)" fill-rule="evenodd" />
<path d="
M 182.905 309.49
C 192.66 310.186 202.463 310.827 212.192 311.779
C 212.439 312.155 211.662 312.644 211.395 312.922
C 210.524 313.827 209.766 314.825 208.909 315.744
C 203.517 316.453 198.356 315.376 192.972 316.79
C 191.896 316.595 190.891 315.329 190.014 314.704
C 187.724 313.071 185.065 311.735 182.892 310.041
C 182.896 309.857 182.901 309.673 182.905 309.49 Z"
opacity="1" fill="rgb(181,159,125)" fill-rule="evenodd" />
<path d="
M 260.456 518.527
C 260.511 518.364 260.567 518.201 260.622 518.039
C 264.089 517.865 267.864 518.383 271.279 517.831
C 271.361 518.45 271.235 518.985 271.056 519.581
C 270.429 519.973 269.182 519.867 268.455 519.885
C 266.465 519.937 264.452 519.89 262.464 519.899
C 262.688 521.593 262.811 523.479 262.666 525.18
C 264.732 525.873 268.249 525.323 270.428 525.241
C 270.636 525.684 270.851 526.52 270.364 526.852
C 267.99 526.718 265.272 527.29 262.828 527.329
C 262.407 528.866 262.395 531.524 262.828 533.075
C 264.831 533.314 266.97 533.016 268.992 533.037
C 269.346 533.04 270.802 532.819 270.982 533.138
C 271.158 533.452 270.997 534.612 270.96 534.988
C 268.587 535.268 266.141 535.068 263.756 535.079
C 262.809 535.084 261.368 535.272 260.561 534.788
C 260.388 529.386 260.573 523.945 260.456 518.527 Z"
opacity="1" fill="rgb(12,15,18)" fill-rule="evenodd" />
<path d="
M 260.743 336.187
C 267.705 335.653 275.012 336.27 282.011 336.295
C 291.327 336.329 300.728 335.87 310.033 336.297
C 310.4 339.164 310.173 342.188 310.179 345.076
C 310.181 346.155 310.612 347.664 310.153 348.661
C 309.665 348.836 309.369 348.789 308.869 348.674
C 307.612 346.974 306.772 345.145 305.122 343.743
C 300.354 339.692 293.95 339.331 288.008 339.316
C 286.059 339.311 282.007 338.609 280.483 339.886
C 280.79 346.571 280.663 353.298 280.653 359.998
C 280.648 363.104 280.288 366.471 280.748 369.544
C 285.975 369.585 291.258 369.387 296.505 369.389
C 298.484 369.39 301.191 368.848 303.079 369.347
C 303.247 370.255 303.202 371.972 302.871 372.836
C 295.52 372.531 288.138 372.868 280.793 372.801
C 280.295 376.421 280.721 380.341 280.708 383.998
C 280.686 389.934 280.358 395.987 280.799 401.909
C 276.485 402.22 271.929 401.941 267.598 401.875
C 267.168 398.119 267.66 394.274 267.548 390.495
C 267.119 375.921 268.227 361.194 267.277 346.643
C 267.125 344.302 266.668 341.371 264.792 339.719
C 263.946 338.975 261.174 338.498 260.732 337.625
C 260.515 337.198 260.729 336.666 260.743 336.187 Z"
opacity="1" fill="rgb(13,30,47)" fill-rule="evenodd" />
<path d="
M 264.812 434.973
C 269.539 434.949 274.279 435.194 279.011 435.18
C 287.181 435.156 294.891 434.945 301.979 439.659
C 316.096 449.05 312.473 471.259 297.586 477.717
C 288.673 481.583 279.246 479.332 269.89 479.947
C 269.478 479.099 269.657 477.934 269.674 477.003
C 269.711 475.004 269.683 473.002 269.684 471.003
C 269.687 463.837 269.695 456.67 269.7 449.504
C 269.702 446.044 270.654 440.348 268.06 437.558
C 267.115 436.541 265.825 436.218 264.659 435.548
C 264.71 435.356 264.761 435.165 264.812 434.973 Z
M 278.493 436.998
C 277.82 439.719 278.59 443.448 278.591 446.282
C 278.592 453.355 278.646 460.426 278.701 467.499
C 278.721 469.998 278.708 472.499 278.78 474.997
C 278.804 475.83 278.537 477.209 278.988 477.893
C 284.496 477.826 290.453 478.994 295.21 475.444
C 297.983 473.376 299.666 469.883 300.607 466.638
C 303.006 458.37 301.259 446.88 294.477 441.011
C 289.541 436.739 284.399 437.828 278.493 436.998 Z"
opacity="1" fill="rgb(191,155,111)" fill-rule="evenodd" />
<path d="
M 273.362 517.976
C 274.204 517.938 275.076 517.78 275.701 518.432
C 276.889 522.196 278.386 525.935 279.775 529.632
C 280.118 530.546 280.14 531.577 280.538 532.462
C 281.582 532.295 281.774 529.768 282.079 528.879
C 283.251 525.46 284.325 521.337 286.131 518.218
C 286.8 518.075 287.475 518.051 288.149 517.91
C 288.494 518.449 287.211 520.785 287.006 521.42
C 285.82 525.105 283.808 528.721 282.865 532.451
C 282.494 533.388 282.12 534.69 281.326 535.343
C 279.672 535.858 278.881 533.42 278.395 532.279
C 276.981 528.962 275.913 525.433 274.753 522.02
C 274.328 520.77 273.279 519.264 273.362 517.976 Z"
opacity="1" fill="rgb(6,11,17)" fill-rule="evenodd" />
<path d="
M 291.412 517.967
C 294.773 517.777 298.146 517.891 301.515 517.801
C 301.899 518.393 301.778 519.019 301.699 519.696
C 299.3 519.713 295.247 519.036 293.11 520.11
C 293.182 521.77 293.414 523.506 293.189 525.151
C 294.637 525.706 297.189 525.201 298.771 525.213
C 299.193 525.217 300.624 525.121 300.912 525.515
C 301.159 525.851 301.092 526.74 301.115 527.126
C 298.644 527.678 295.829 527.249 293.309 527.347
C 293.375 529.273 293.318 531.215 293.275 533.14
C 295.176 533.116 297.086 533.091 298.993 533.086
C 299.657 533.085 300.869 532.909 301.483 533.201
C 302.204 533.544 301.97 534.356 301.906 534.97
C 298.559 534.925 294.591 535.55 291.329 534.911
C 290.86 529.467 291.056 523.728 291.164 518.265
C 291.247 518.166 291.329 518.067 291.412 517.967 Z"
opacity="1" fill="rgb(5,10,10)" fill-rule="evenodd" />
<path d="
M 305.384 518.426
C 305.452 518.317 305.52 518.207 305.587 518.098
C 308.414 517.571 312.603 517.358 315.101 518.972
C 319.243 521.649 316.799 526.469 313.242 528.14
C 313.38 528.772 314.129 529.363 314.523 529.904
C 315.229 530.873 315.706 531.989 316.368 532.988
C 316.782 533.613 317.647 534.281 317.849 534.975
C 317.463 535.495 316.183 535.247 315.635 535.207
C 313.302 533.997 312.729 530.243 311.001 528.353
C 309.898 528.089 308.359 527.895 307.3 528.345
C 307.28 530.17 307.921 533.351 307.206 535.027
C 306.615 535.078 306.021 535.031 305.439 535.123
C 304.777 533.67 305.174 531.566 305.172 529.993
C 305.168 526.187 304.912 522.206 305.384 518.426 Z
M 307.371 519.824
C 307.462 521.852 307.518 524.076 307.286 526.091
C 309.038 526.408 312.566 526.399 314.042 525.29
C 315.606 524.114 315.135 521.112 313.504 520.174
C 311.796 519.192 309.224 519.91 307.371 519.824 Z"
opacity="1" fill="rgb(7,13,16)" fill-rule="evenodd" />
<path d="
M 313.355 401.018
C 319.234 386.178 325.482 371.43 331.784 356.763
C 333.768 352.146 335.759 347.532 337.699 342.897
C 338.69 340.531 339.501 337.945 340.816 335.745
C 342.295 335.735 343.843 335.701 345.316 335.564
C 346.405 336.463 346.742 338.552 347.323 339.817
C 349.061 343.603 350.617 347.474 352.274 351.296
C 356.736 361.586 361.015 371.957 365.433 382.264
C 367.639 387.41 369.415 393.871 373.436 397.941
C 375.119 399.645 376.873 399.282 378.709 400.361
C 378.71 401.008 378.784 401.348 378.379 401.917
C 376.633 402.703 374.172 402.4 372.295 402.441
C 370.069 402.491 367.865 402.467 365.682 401.97
C 356.505 399.88 354.889 390.733 351.436 383.448
C 349.808 382.508 345.912 383.219 344.01 383.226
C 337.53 383.25 331.013 383.119 324.542 383.378
C 323.243 384.934 322.76 387.354 321.98 389.214
C 320.196 393.474 318.634 397.953 316.679 402.12
C 315.758 402.556 314.21 402.173 313.215 402.132
C 313.227 401.331 313.168 401.701 313.355 401.018 Z
M 325.951 379.601
C 325.882 379.803 325.814 380.005 325.746 380.207
C 333.897 380.018 342.079 380.347 350.234 380.226
C 348.829 378.385 348.124 375.81 347.198 373.7
C 345.016 368.727 343.03 363.667 340.885 358.677
C 340.136 356.932 339.343 355.194 338.636 353.433
C 338.308 352.613 338.307 351.639 337.577 351.082
C 336.319 353.568 335.597 356.476 334.49 359.066
C 332.237 364.336 329.888 369.597 327.83 374.948
C 327.229 376.505 326.646 378.084 325.951 379.601 Z"
opacity="1" fill="rgb(13,30,47)" fill-rule="evenodd" />
<path d="
M 319.414 517.882
C 323.241 517.268 324.009 523.828 326.4 525.695
C 329.113 523.059 329.295 518.666 333.238 517.334
C 333.904 517.782 332.749 519.242 332.476 519.624
C 330.907 521.824 329.655 524.35 328.199 526.635
C 327.048 528.44 327.18 530.521 327.252 532.583
C 327.276 533.275 327.543 534.742 326.867 535.16
C 326.312 535.191 325.734 535.273 325.223 535.061
C 324.963 532.525 325.597 529.735 324.595 527.32
C 323.226 524.019 320.362 521.325 319.414 517.882 Z"
opacity="1" fill="rgb(6,8,8)" fill-rule="evenodd" />
<path d="
M 323.523 435.391
C 325.457 434.678 327.728 435.05 329.776 435.086
C 332.012 435.126 334.459 434.845 336.659 435.212
C 336.811 445.969 336.642 456.736 336.621 467.496
C 336.615 470.571 336.609 473.641 336.665 476.714
C 336.68 477.551 336.39 479.382 336.798 480.094
C 333.847 479.885 330.765 479.723 327.807 480.03
C 327.088 476.983 327.707 473.141 327.71 470.002
C 327.719 463.214 327.698 456.426 327.708 449.638
C 327.712 446.28 328.721 440.839 326.745 437.933
C 325.929 436.733 324.646 436.216 323.523 435.391 Z"
opacity="1" fill="rgb(191,157,112)" fill-rule="evenodd" />
<path d="
M 334.59 519.109
C 334.95 518.285 334.699 518.674 335.377 517.967
C 339.414 517.899 344.116 517.55 348.085 518.303
C 348.139 518.699 348.393 519.595 347.977 519.847
C 346.141 519.867 344.323 519.894 342.493 520.036
C 342.25 523.697 342.451 527.395 342.492 531.063
C 342.503 532.011 342.941 534.364 342.186 535.001
C 341.563 535.089 340.976 535.126 340.35 535.117
C 340.319 530.263 339.895 524.944 340.374 520.141
C 340.113 519.762 339.541 519.874 339.114 519.846
C 337.639 519.748 336.031 519.708 334.56 519.876
C 334.234 519.592 334.378 519.803 334.59 519.109 Z"
opacity="1" fill="rgb(10,8,14)" fill-rule="evenodd" />
<path d="
M 350.758 518.285
C 351.274 518.02 352.255 517.564 352.816 517.962
C 352.652 520.353 352.929 522.801 352.66 525.176
C 353.362 525.557 354.227 525.281 355.007 525.279
C 357.265 525.272 359.591 525.083 361.839 525.306
C 361.882 522.852 361.723 520.416 362.033 517.969
C 362.632 517.9 363.357 517.788 363.936 517.971
C 363.984 523.68 363.788 529.397 363.973 535.105
C 363.642 535.445 362.32 535.189 361.861 535.113
C 361.738 532.5 361.715 529.834 361.803 527.223
C 359.321 526.398 355.33 527.098 352.722 527.247
C 352.697 529.72 353.128 532.562 352.667 534.982
C 352.097 535.027 351.557 535.039 350.985 535.027
C 350.402 533.351 350.704 531.256 350.697 529.5
C 350.684 525.771 350.576 522.007 350.758 518.285 Z"
opacity="1" fill="rgb(4,6,11)" fill-rule="evenodd" />
<path d="
M 351.532 435.401
C 353.796 434.422 357.406 434.956 359.898 434.972
C 367.34 435.02 376.976 433.547 383.471 437.95
C 389.212 441.842 389.742 450.924 384.639 455.614
C 382.428 457.646 379.625 457.567 377.065 458.685
C 377.075 459.26 377.936 459.321 378.43 459.549
C 380.088 460.316 381.629 461.337 382.934 462.624
C 386.551 466.191 386.943 471.279 389.58 475.404
C 390.793 477.302 392.281 477.94 394.273 478.719
C 394.767 478.913 395.126 479.234 394.78 479.721
C 393.338 480.309 391.436 480.304 389.891 480.383
C 388.291 480.464 386.654 480.467 385.105 479.996
C 376.722 477.447 378.35 465.682 371.836 461.108
C 370.084 459.878 367.621 460.211 365.589 460.095
C 365.233 461.365 365.449 462.915 365.43 464.228
C 365.387 467.318 365.358 470.407 365.344 473.497
C 365.335 475.425 364.869 478.068 365.323 479.906
C 363.344 479.94 361.362 479.85 359.382 479.894
C 358.391 479.917 357.278 480.262 356.311 480.103
C 357.021 471.401 356.354 462.632 356.355 453.931
C 356.355 449.7 357.336 444.307 356.188 440.215
C 355.464 437.631 353.424 436.912 351.532 435.401 Z
M 365.396 436.935
C 364.849 442.148 365.422 447.74 365.41 452.996
C 365.407 454.28 365.461 455.578 365.393 456.859
C 365.369 457.303 365.189 458.073 365.515 458.419
C 368.768 457.997 371.878 458.41 374.748 456.451
C 380.232 452.708 380.66 442.624 375.096 438.699
C 372.212 436.665 368.715 437.172 365.396 436.935 Z"
opacity="1" fill="rgb(192,156,110)" fill-rule="evenodd" />
<path d="
M 368.408 518.525
C 368.482 518.338 368.556 518.152 368.63 517.965
C 369.271 517.966 369.991 517.835 370.497 518.251
C 370.228 523.744 371.202 529.517 370.411 534.969
C 369.806 535.106 369.2 535.034 368.586 534.971
C 367.971 529.691 368.049 523.831 368.408 518.525 Z"
opacity="1" fill="rgb(10,8,20)" fill-rule="evenodd" />
<path d="
M 374.978 517.928
C 375.12 517.819 375.263 517.71 375.405 517.6
C 377.305 518.002 377.976 519.263 379.063 520.746
C 380.854 523.189 382.564 525.702 384.243 528.221
C 384.855 529.139 385.451 530.497 386.375 531.124
C 386.905 530.088 386.372 528.158 386.325 526.999
C 386.203 523.997 386.231 520.956 386.368 517.958
C 387.023 517.864 387.666 517.87 388.327 517.897
C 388.922 522.096 388.821 526.831 388.504 531.049
C 388.402 532.408 388.744 533.998 388.254 535.285
C 387.788 535.49 387.466 535.476 386.968 535.436
C 386.058 534.72 385.551 533.558 384.881 532.628
C 383.017 530.039 381.297 527.352 379.446 524.754
C 378.964 524.078 377.621 521.137 376.773 521.491
C 376.863 524.66 376.786 527.824 376.856 530.993
C 376.88 532.077 377.303 534.159 376.769 535.103
C 376.184 535.107 375.651 535.058 375.096 534.873
C 374.541 532.206 374.791 529.213 374.799 526.496
C 374.807 523.669 374.572 520.73 374.978 517.928 Z"
opacity="1" fill="rgb(10,13,18)" fill-rule="evenodd" />
<path d="
M 384.919 336.316
C 391.19 335.566 397.985 336.535 404.313 336.489
C 404.732 338.714 404.427 341.244 404.417 343.509
C 404.4 347.675 404.385 351.841 404.373 356.007
C 404.331 370.311 403.942 384.72 404.457 399.01
C 411.754 398.718 419.624 399.785 426.414 396.475
C 428.929 395.249 430.866 393.503 432.589 391.318
C 433.276 390.447 433.806 389 435.077 389.323
C 435.202 392.362 434.814 395.486 434.768 398.545
C 434.756 399.394 435.119 401.319 434.547 401.97
C 426.062 401.552 417.503 401.879 409.01 401.868
C 403.232 401.861 397.162 401.324 391.42 401.983
C 390.243 383.999 391.852 365.795 391.31 347.778
C 391.232 345.187 391.101 342.287 389.242 340.278
C 387.826 338.748 384.541 338.565 384.919 336.316 Z"
opacity="1" fill="rgb(14,32,50)" fill-rule="evenodd" />
<path d="
M 392.394 524.062
C 393.575 520.218 396.344 517.459 400.573 517.645
C 403.185 517.759 407.686 519.733 406.978 522.966
C 405.423 523.203 404.478 521.488 403.39 520.611
C 402.363 519.782 401.073 519.485 399.772 519.601
C 393.251 520.185 392.457 530.175 397.852 532.954
C 401.363 534.763 405.983 532.396 405.289 528.221
C 404.029 528.232 402.771 528.288 401.512 528.299
C 401.239 528.301 400.358 528.376 400.173 528.099
C 399.888 527.673 400.096 527.077 400.091 526.565
C 401.736 525.928 404.26 526.229 406.013 526.32
C 406.507 526.346 407.385 526.225 407.718 526.564
C 407.705 528.421 407.649 531.109 406.565 532.678
C 403.965 536.444 397.802 536.195 394.72 533.273
C 392.305 530.982 391.649 527.216 392.394 524.062 Z"
opacity="1" fill="rgb(11,13,17)" fill-rule="evenodd" />
<path d="
M 403.471 434.957
C 410.868 434.747 418.289 434.936 425.682 434.948
C 429.339 434.954 433.501 434.355 437.083 435.149
C 437.244 437.669 437.557 440.359 437.241 442.872
C 436.576 443.169 435.778 442.117 435.372 441.701
C 433.823 440.116 432.283 438.932 430.269 437.984
C 426.485 436.202 420.938 436.901 416.842 436.875
C 416.279 438.856 416.723 441.438 416.724 443.5
C 416.727 447.895 416.525 452.349 416.751 456.736
C 422.175 457.074 427.734 456.047 433.122 456.402
C 433.144 457.16 433.19 458.401 432.706 459.014
C 428.936 458.913 425.156 459.139 421.383 458.971
C 420.189 458.917 417.734 458.745 416.855 459.42
C 416.784 463.692 416.734 467.967 416.726 472.242
C 416.724 473.821 416.272 476.537 417.029 477.932
C 421.921 477.981 428.305 478.737 432.727 476.257
C 434.857 475.062 436.065 472.644 438.103 471.564
C 438.834 473.599 438.587 477.868 437.826 479.892
C 427.846 480.66 417.709 479.432 407.729 480.083
C 408.459 470.853 407.81 461.395 407.902 452.137
C 407.943 447.999 409.25 441.18 406.477 437.7
C 405.568 436.56 404.039 436.126 402.866 435.318
C 403.068 435.197 403.269 435.077 403.471 434.957 Z"
opacity="1" fill="rgb(188,154,109)" fill-rule="evenodd" />
<path d="
M 417.957 518.568
C 417.995 518.359 418.033 518.149 418.071 517.94
C 421.331 517.73 424.825 518.38 428.037 517.81
C 428.173 518.413 428.45 519.345 428.046 519.906
C 425.45 519.793 422.428 520.291 419.903 519.832
C 420.108 521.701 419.777 523.637 419.972 525.507
C 422.002 525.059 424.446 525.176 426.512 525.392
C 427.3 525.474 428.427 526.181 427.592 527.062
C 425.187 527.434 422.814 527.319 420.388 527.42
C 419.52 529.481 420.389 532.945 420.322 535.197
C 419.634 535.174 418.936 535.145 418.247 535.174
C 417.541 529.923 417.7 523.862 417.957 518.568 Z"
opacity="1" fill="rgb(7,10,14)" fill-rule="evenodd" />
<path d="
M 429.441 534.607
C 430.482 530.076 432.753 525.794 434.235 521.391
C 434.851 519.561 435.23 517.564 437.469 517.768
C 438.717 518.947 438.99 520.827 439.563 522.383
C 440.607 525.215 441.746 528.014 442.856 530.822
C 443.26 531.844 444.582 534.454 443.912 535.375
C 443.442 535.402 442.984 535.4 442.515 535.411
C 441.653 534.375 441.231 532.44 440.91 531.118
C 438.823 530.961 434.354 530.026 432.638 531.444
C 431.958 532.595 431.916 534.051 431.203 535.168
C 430.594 535.396 429.947 535.238 429.317 535.184
C 429.358 534.992 429.399 534.8 429.441 534.607 Z
M 433.96 528.069
C 433.661 528.775 433.674 528.447 433.778 529.036
C 435.881 528.949 437.984 529.063 440.079 528.989
C 439.789 526.969 438.491 524.574 437.712 522.673
C 437.413 521.945 437.209 521.255 436.402 521.374
C 435.627 523.533 435.113 526.087 433.96 528.069 Z"
opacity="1" fill="rgb(4,7,11)" fill-rule="evenodd" />
<path d="
M 442.941 365.106
C 443.585 361.457 444.365 357.925 445.946 354.543
C 451.756 342.104 464.691 335.265 478.104 335.233
C 485.203 335.216 492.672 336.701 498.27 341.331
C 500.327 343.032 502.956 345.277 502.934 348.204
C 502.891 353.671 496.184 358.698 491.325 354.709
C 489.827 353.479 489.445 351.362 488.794 349.633
C 487.702 346.731 486.373 343.784 484.081 341.623
C 478.736 336.583 469.788 337.503 464.33 341.913
C 461.374 344.302 459.291 347.953 457.97 351.463
C 453.492 363.367 456.405 380.313 465.442 389.406
C 474.896 398.917 492.939 399.682 500.645 387.445
C 501.513 387.556 502.146 388.42 502.525 389.163
C 502.149 391.668 498.395 394.575 496.543 396.063
C 489.549 401.681 480.359 404.055 471.478 403.155
C 452.565 401.238 440.723 383.287 442.941 365.106 Z"
opacity="1" fill="rgb(14,30,48)" fill-rule="evenodd" />
<path d="
M 447.31 517.911
C 448.014 517.901 448.777 517.811 449.466 517.978
C 449.665 522.902 449.879 528.304 449.335 533.202
C 449.766 533.515 450.94 533.193 451.501 533.182
C 453.36 533.142 455.2 533.229 457.056 533.289
C 457.089 533.599 457.267 534.673 457.094 534.961
C 456.879 535.319 454.987 535.189 454.637 535.192
C 452.214 535.206 449.744 535.296 447.327 535.197
C 447.012 532.019 447.257 528.685 447.268 525.491
C 447.278 522.997 447.036 520.388 447.31 517.911 Z"
opacity="1" fill="rgb(13,15,21)" fill-rule="evenodd" />
<path d="
M 450.358 453.078
C 451.349 449.2 452.688 445.586 455.152 442.374
C 459.656 436.504 467.366 434.05 474.513 434.116
C 479.285 434.16 484.231 435.412 488.086 438.304
C 489.73 439.537 491.623 441.635 491.4 443.846
C 491.054 447.282 486.399 449.846 483.568 447.368
C 482.293 446.251 482.064 444.597 481.533 443.085
C 480.976 441.499 480.008 439.925 478.784 438.767
C 472.315 432.643 462.876 437.672 460.255 444.963
C 457.522 452.564 458.935 462.797 463.906 469.192
C 470.621 477.83 482.762 478.58 490.026 470.296
C 491.565 470.332 491.494 471.441 490.748 472.401
C 489.472 474.046 487.925 475.536 486.213 476.729
C 481.363 480.107 475.249 481.643 469.391 480.783
C 456.259 478.855 447.893 466.011 450.358 453.078 Z"
opacity="1" fill="rgb(191,155,109)" fill-rule="evenodd" />
<path d="
M 458.489 525.102
C 458.967 522.893 459.634 520.917 461.405 519.377
C 464.596 516.602 470.688 517.362 472.93 521.093
C 473.631 522.259 472.139 522.721 471.275 522.572
C 469.16 521.085 468.378 519.33 465.4 519.78
C 459.985 520.596 459.722 528.793 463.028 531.987
C 464.412 533.325 466.945 533.959 468.687 532.914
C 470.155 532.033 471.022 530.152 472.961 530.856
C 473.943 533.446 468.904 535.298 467.038 535.393
C 461.332 535.683 457.861 530.355 458.489 525.102 Z"
opacity="1" fill="rgb(12,13,17)" fill-rule="evenodd" />
<path d="
M 475.935 523.583
C 477.46 518.002 484.127 515.842 488.499 519.697
C 491.179 522.059 491.955 525.96 491.036 529.337
C 489.418 535.281 482.278 537.434 477.874 532.853
C 475.63 530.519 475.096 526.654 475.935 523.583 Z
M 477.976 525.106
C 477.726 527.519 477.868 530.117 479.681 531.937
C 483.476 535.747 488.499 532.279 489.039 527.816
C 489.355 525.202 488.562 522.212 486.358 520.614
C 482.681 517.948 478.386 521.132 477.976 525.106 Z"
opacity="1" fill="rgb(11,12,17)" fill-rule="evenodd" />
<path d="
M 494.995 519.094
C 495.091 518.63 495.214 518.174 495.315 517.71
C 497.568 517.85 498.207 519.609 499.43 521.219
C 501.779 524.31 503.729 528.36 506.502 531.054
C 507.117 530.572 506.61 528.668 506.56 528
C 506.374 525.502 506.388 523 506.413 520.494
C 506.419 519.882 506.207 518.218 506.82 517.856
C 507.207 517.628 508.249 517.772 508.686 517.816
C 509.052 519.106 508.771 520.653 508.755 521.982
C 508.72 524.816 508.732 527.651 508.652 530.484
C 508.612 531.88 509.087 533.735 508.551 535.033
C 507.993 535.42 507.356 535.421 506.736 535.185
C 503.452 530.779 500.721 525.958 497.155 521.77
C 496.997 526.262 497.009 530.755 497.222 535.25
C 496.553 535.279 495.91 535.232 495.246 535.169
C 494.782 531.869 495.061 528.539 495.1 525.223
C 495.124 523.185 494.85 521.125 494.995 519.094 Z"
opacity="1" fill="rgb(8,11,15)" fill-rule="evenodd" />
<path d="
M 501.963 436.112
C 502.103 435.491 502.067 435.856 501.956 435.012
C 505.15 434.428 508.707 435.076 511.948 435.047
C 518.466 434.99 524.984 434.934 531.505 434.936
C 534.171 434.936 536.839 434.942 539.504 434.885
C 540.487 434.865 541.936 434.535 542.832 434.937
C 542.786 435.809 542.59 436.907 542.796 437.748
C 537.528 437.836 532.233 437.62 526.976 437.914
C 526.18 441.723 526.738 446.117 526.731 450.001
C 526.714 459.876 527.555 470.07 526.834 479.906
C 523.873 479.832 520.885 479.703 517.927 479.906
C 517.408 479.446 517.699 478.068 517.716 477.388
C 517.782 474.761 517.733 472.128 517.744 469.501
C 517.785 458.912 518.214 448.262 517.82 437.68
C 514.006 437.754 509.603 437.213 505.869 438.111
C 504.418 438.459 503.487 439.716 501.955 439.918
C 501.495 438.942 501.86 437.173 501.963 436.112 Z"
opacity="1" fill="rgb(190,155,110)" fill-rule="evenodd" />
<path d="
M 512.991 527.622
C 513.187 525.44 513.201 523.185 513.156 520.996
C 513.137 520.035 512.945 518.849 513.485 518.051
C 515.952 517.733 519.52 517.449 521.872 518.424
C 524.871 519.668 526.287 523.072 524.336 525.882
C 523.566 526.99 522.487 527.604 521.494 528.471
C 522.566 529.942 523.341 531.535 524.241 533.106
C 524.562 533.665 525.266 534.367 525.391 534.978
C 524.604 535.878 523.025 535.066 522.485 534.351
C 521.103 532.523 520.715 529.484 518.741 528.182
C 517.542 528.209 516.316 528.189 515.118 528.106
C 514.721 530.494 515.08 532.868 515.273 535.247
C 514.608 535.277 514.005 535.152 513.337 535.145
C 512.298 533.38 512.867 529.627 512.991 527.622 Z
M 515.449 519.981
C 515.401 520.032 515.352 520.082 515.304 520.132
C 515.305 521.591 514.614 524.23 515.233 525.565
C 515.632 526.425 517.598 526.06 518.292 526.021
C 519.365 525.961 520.933 526.149 521.828 525.447
C 523.282 524.306 523.271 521.531 521.824 520.399
C 521.066 519.806 520.031 519.841 519.124 519.822
C 517.891 519.795 516.678 519.984 515.449 519.981 Z"
opacity="1" fill="rgb(9,13,15)" fill-rule="evenodd" />
<path d="
M 514.478 367.611
C 514.801 361.92 516.364 356.3 519.167 351.334
C 529.109 333.723 555.009 330.196 570.302 342.711
C 578.237 349.203 582.44 359.828 582.06 369.991
C 581.858 375.376 580.623 380.839 578.197 385.675
C 568.473 405.056 540.532 408.99 524.819 394.542
C 517.528 387.837 513.924 377.39 514.478 367.611 Z
M 527.974 358.626
C 527.083 370.78 530.321 386.504 539.528 395.167
C 545.643 400.921 556.39 402.748 562.682 396.097
C 566.317 392.255 567.854 386.284 568.291 381.148
C 569.045 372.301 567.492 363.193 564.218 354.975
C 562.43 350.488 559.968 346.05 556.317 342.806
C 550.121 337.302 539.575 336.439 533.686 342.992
C 529.946 347.154 528.373 353.177 527.974 358.626 Z"
opacity="1" fill="rgb(13,30,49)" fill-rule="evenodd" />
<path d="
M 527.247 517.894
C 530.458 517.681 533.119 522.73 534.053 525.505
C 534.813 525.964 535.5 523.99 535.852 523.319
C 536.855 521.412 538.505 516.538 541.374 518.232
C 539.706 521.492 536.179 524.67 535.388 528.296
C 534.911 530.479 535.522 532.952 535.286 535.19
C 534.625 535.251 533.965 535.164 533.307 535.219
C 532.502 532.534 533.659 529.659 532.516 526.953
C 531.225 523.895 527.776 521.141 527.247 517.894 Z"
opacity="1" fill="rgb(12,17,18)" fill-rule="evenodd" />
<path d="
M 543.375 532.331
C 544.29 532.164 545.226 532.045 546.011 532.629
C 546.322 533.381 546.409 534.222 545.737 534.79
C 545.092 535.097 544.469 535.123 543.774 535.003
C 543.222 534.179 543.204 533.281 543.375 532.331 Z"
opacity="1" fill="rgb(13,16,13)" fill-rule="evenodd" />
<path d="
M 552.884 454.09
C 553.618 449.153 555.769 444.104 559.398 440.604
C 571.766 428.675 593.47 434.586 597.862 451.163
C 598.7 454.326 598.986 457.689 598.551 460.94
C 597.714 467.199 594.372 473.387 589.111 476.981
C 579.272 483.701 564.781 481.824 557.467 472.343
C 555.565 469.878 554.236 467.043 553.447 464.033
C 552.605 460.817 552.396 457.376 552.884 454.09 Z
M 561.921 447.588
C 560.361 456.544 562.929 468.275 569.289 474.981
C 573.429 479.347 580.992 480.847 585.503 476.115
C 587.582 473.934 588.585 470.809 589.155 467.913
C 590.928 458.902 588.374 446.487 581.489 440.024
C 577.399 436.185 570.509 434.961 566.055 438.999
C 563.699 441.134 562.456 444.52 561.921 447.588 Z"
opacity="1" fill="rgb(192,156,112)" fill-rule="evenodd" />
<path d="
M 556.443 525.095
C 557.263 518.905 563.916 515.511 569.026 519.537
C 571.742 521.677 572.529 525.317 572.1 528.592
C 571.349 534.328 564.928 537.185 560.093 534.055
C 557.327 532.263 556.022 528.275 556.443 525.095 Z
M 558.921 524.59
C 558.459 527.09 558.732 530.085 560.617 531.964
C 563.953 535.292 568.957 532.838 569.852 528.708
C 570.429 526.044 569.753 522.368 567.426 520.685
C 563.955 518.176 559.631 520.742 558.921 524.59 Z"
opacity="1" fill="rgb(10,13,17)" fill-rule="evenodd" />
<path d="
M 575.869 517.806
C 578.146 517.66 579.007 519.744 580.133 521.385
C 582.401 524.691 584.566 528.343 587.129 531.415
C 587.581 531.032 587.131 528.847 587.106 528.291
C 586.961 524.997 587.178 521.707 587.172 518.401
C 587.811 517.938 588.238 518.016 589.021 518.075
C 589.558 519.425 589.302 521.045 589.303 522.48
C 589.304 525.143 589.269 527.808 589.286 530.47
C 589.296 531.943 589.705 533.876 589.179 535.268
C 587.194 535.894 586.3 533.823 585.343 532.401
C 583.001 528.921 580.814 524.889 577.907 521.868
C 577.729 526.35 578.092 530.893 577.841 535.356
C 577.185 535.308 576.477 535.45 575.873 535.166
C 575.399 532.578 575.677 529.624 575.689 526.991
C 575.703 523.955 575.437 520.815 575.869 517.806 Z"
opacity="1" fill="rgb(7,13,16)" fill-rule="evenodd" />
<path d="
M 592.861 336.404
C 598.514 336.429 604.614 335.827 610.211 336.704
C 611.917 337.787 613.21 339.622 614.5 341.149
C 616.695 343.75 618.934 346.325 621.156 348.904
C 628.327 357.23 635.106 365.883 642.276 374.208
C 644.192 376.432 645.908 378.958 647.952 381.038
C 648.288 379.869 647.878 378.221 647.87 377.005
C 647.851 374.005 647.916 371.003 647.917 368.002
C 647.922 357.437 647.637 346.852 647.875 336.29
C 648.869 336.264 650.605 335.853 651.471 336.302
C 651.034 342.315 651.415 348.47 651.416 354.5
C 651.417 363.998 651.236 373.503 651.368 382.999
C 651.433 387.668 651.434 392.339 651.453 397.008
C 651.46 398.621 651.931 401.229 651.279 402.706
C 649.061 403.379 647.98 401.721 646.67 400.239
C 644.047 397.273 641.532 394.201 638.982 391.172
C 630.082 380.606 621.238 369.984 612.122 359.602
C 609.973 357.155 607.74 354.706 605.855 352.046
C 605.723 351.859 603.969 349.707 603.87 349.781
C 603.563 350.007 603.814 350.542 603.795 350.924
C 603.745 351.942 603.757 352.968 603.749 353.987
C 603.717 358.322 603.721 362.657 603.724 366.992
C 603.727 371.492 603.719 375.992 603.718 380.492
C 603.716 385.659 603.705 390.826 603.688 395.993
C 603.683 397.572 603.113 400.716 603.776 402.119
C 602.625 402.115 601.355 402.318 600.226 402.074
C 600.765 394.128 600.254 385.97 600.245 378.003
C 600.232 367.641 600.608 357.187 600.224 346.837
C 600.129 344.304 599.949 342.384 597.905 340.625
C 596.842 339.711 595.62 339.226 594.302 338.816
C 593.922 338.698 592.889 338.576 592.641 338.241
C 592.335 337.826 592.738 336.812 592.861 336.404 Z"
opacity="1" fill="rgb(13,30,48)" fill-rule="evenodd" />
<path d="
M 593.902 517.923
C 597.184 517.776 601.093 517.448 604.331 518.031
C 604.464 518.594 604.531 519.158 604.311 519.709
C 601.511 520.013 598.675 519.588 595.875 519.902
C 595.416 520.741 595.387 524.604 596.002 525.444
C 597.808 525.337 599.59 525.322 601.401 525.341
C 601.986 525.347 603.246 525.201 603.683 525.696
C 603.92 525.963 603.837 526.642 603.811 526.951
C 601.865 528.028 598.06 527.179 595.862 527.384
C 595.873 529.282 595.907 531.267 595.728 533.152
C 597.45 533.692 600.171 533.167 602.004 533.129
C 602.557 533.117 604.09 532.94 604.449 533.486
C 604.614 533.736 604.487 534.786 604.487 535.019
C 601.171 535.646 597.152 535.06 593.755 535.154
C 593.094 533.791 593.596 531.495 593.599 529.982
C 593.608 526.04 593.436 522.071 593.583 518.135
C 593.69 518.064 593.796 517.993 593.902 517.923 Z"
opacity="0.996" fill="rgb(8,13,17)" fill-rule="evenodd" />
<path d="
M 610.381 435.333
C 613.201 434.488 616.576 434.918 619.505 434.935
C 626.146 434.972 634.299 434.027 640.446 436.981
C 646.406 439.844 648.816 446.938 645.734 452.821
C 644.221 455.709 641.638 456.875 638.774 458.067
C 637.912 458.425 636.891 458.364 636.161 458.999
C 638.245 460.131 640.331 460.65 642.045 462.456
C 645.397 465.986 645.77 471.218 648.338 475.222
C 649.076 476.373 649.998 477.401 651.263 477.978
C 651.786 478.217 652.867 478.312 653.242 478.768
C 653.488 479.068 653.397 479.395 653.239 479.686
C 651.853 480.222 650.089 480.211 648.615 480.295
C 646.102 480.438 643.273 480.369 641.192 478.749
C 634.906 473.856 636.996 461.85 627.832 460.395
C 626.704 460.215 625.481 460.121 624.346 460.269
C 625.01 466.748 623.917 473.417 624.388 479.908
C 621.427 479.842 618.352 479.601 615.405 479.94
C 615.106 476.853 615.408 473.598 615.405 470.493
C 615.399 464.16 615.361 457.828 615.361 451.495
C 615.361 447.826 616.41 442.088 614.592 438.767
C 613.676 437.094 611.838 436.419 610.381 435.333 Z
M 624.288 437.329
C 624.772 444.347 624.033 451.444 624.46 458.458
C 625.542 459.062 628.134 458.353 629.36 458.226
C 638.876 457.238 641.304 442.448 632.815 438.163
C 630.348 436.918 626.949 437.078 624.288 437.329 Z"
opacity="1" fill="rgb(188,152,107)" fill-rule="evenodd" />
<path d="
M 614.931 518.46
C 615 518.328 615.069 518.196 615.138 518.064
C 617.843 518.095 621.445 517.462 623.986 518.589
C 627.366 520.088 627.655 524.885 624.76 527.049
C 622.628 528.642 619.568 528.192 617.084 528.513
C 616.461 530.724 617.151 533.07 616.902 535.319
C 616.243 535.269 615.546 535.313 614.99 534.936
C 614.108 529.727 614.836 523.734 614.931 518.46 Z
M 616.939 519.879
C 617.089 522.019 617.104 524.5 616.78 526.628
C 618.523 526.89 621.863 526.89 623.346 525.83
C 625.032 524.626 625.067 521.271 623.09 520.276
C 621.292 519.372 618.851 519.95 616.939 519.879 Z"
opacity="1" fill="rgb(7,8,12)" fill-rule="evenodd" />
<path d="
M 629.994 519.101
C 630.106 518.562 630.048 518.891 630.134 518.11
C 630.772 517.773 631.365 517.78 632.083 517.762
C 632.4 522.889 631.447 528.261 632.09 533.328
C 634.077 533.095 636.159 533.201 638.169 533.164
C 638.818 533.153 639.894 533.003 640.382 533.388
C 640.458 533.968 640.668 534.78 640.07 535.104
C 636.818 535.426 633.487 535.125 630.227 535.207
C 629.852 533.412 630.128 531.412 630.094 529.579
C 630.029 526.089 629.91 522.591 629.994 519.101 Z"
opacity="1" fill="rgb(8,7,8)" fill-rule="evenodd" />
<path d="
M 641.995 534.086
C 643.275 529.677 645.213 525.304 646.808 520.989
C 647.338 519.555 648.001 516.68 650.097 517.883
C 652.147 522.146 654.065 526.975 655.513 531.484
C 655.882 532.63 656.842 533.675 656.924 534.895
C 656.335 534.926 655.748 534.935 655.16 534.973
C 654.028 534.357 653.674 531.981 652.963 530.876
C 650.981 531.053 646.752 529.849 645.217 531.279
C 644.314 532.928 644.346 535.472 642.032 535.16
C 641.921 534.419 641.926 534.777 641.995 534.086 Z
M 645.886 528.657
C 645.811 528.803 645.736 528.949 645.661 529.095
C 647.24 529.178 648.824 528.843 650.417 528.921
C 650.851 528.942 651.904 529.22 652.275 528.921
C 652.146 527.019 650.767 524.931 650.209 523.104
C 649.978 522.347 649.696 521.218 649.012 520.789
C 647.633 523.185 647.129 526.166 645.886 528.657 Z"
opacity="1" fill="rgb(8,10,17)" fill-rule="evenodd" />
<path d="
M 657.302 434.908
C 659.931 434.665 662.622 434.857 665.263 434.876
C 666.925 434.887 668.88 434.785 670.385 435.62
C 673.285 437.228 674.785 440.558 676.387 443.292
C 679.247 448.176 681.984 453.252 685.082 457.984
C 685.649 458.187 685.844 457.219 686.114 456.741
C 686.886 455.372 687.678 454.005 688.476 452.65
C 691.976 446.706 695.125 440.519 698.691 434.628
C 699.593 434.515 700.568 434.485 701.406 434.886
C 698.398 440.704 694.924 446.476 691.406 452.003
C 689.744 454.614 687.186 457.462 686.177 460.392
C 685.587 462.105 686.129 464.677 686.149 466.499
C 686.197 470.933 685.884 475.471 686.187 479.889
C 683.077 480.091 679.966 479.813 676.843 480.107
C 677.463 475.66 677.469 470.316 676.982 465.857
C 676.828 464.45 677.239 462.907 676.891 461.53
C 676.537 460.13 675.239 458.681 674.528 457.42
C 672.436 453.715 670.097 450.158 667.942 446.491
C 666.264 443.637 664.674 440.049 662.153 437.842
C 661.214 437.02 660.005 436.471 658.819 436.107
C 658.532 436.019 657.235 435.852 657.114 435.548
C 657.032 435.342 657.239 435.121 657.302 434.908 Z"
opacity="1" fill="rgb(191,155,111)" fill-rule="evenodd" />
<path d="
M 658.968 523.588
C 660.256 519.773 663.074 517.26 667.314 517.59
C 668.905 517.713 673.663 519.883 673.328 521.866
C 673.042 522.542 672.289 522.675 671.606 522.629
C 669.87 521.513 668.872 519.42 666.539 519.503
C 660.579 519.715 659.316 528.214 662.804 531.949
C 664.216 533.461 667.303 533.947 668.983 532.636
C 669.966 531.869 671.398 529.643 672.818 530.684
C 673.694 533.497 668.579 535.308 666.501 535.306
C 660.395 535.299 657.576 528.917 658.968 523.588 Z"
opacity="1" fill="rgb(10,13,16)" fill-rule="evenodd" />
<path d="
M 667.798 336.362
C 674.594 336.005 681.487 336.421 688.294 336.404
C 695.215 336.387 702.711 336.005 709.279 338.55
C 717.872 341.88 722.929 350.782 719.717 359.721
C 718.165 364.04 714.687 367.39 710.485 369.123
C 708.827 369.806 707.032 370.229 705.273 370.552
C 704.56 370.683 703.508 370.664 703.279 371.434
C 704.146 371.785 705.077 371.684 705.942 372.026
C 710.248 373.728 713.344 376.684 715.46 380.789
C 719.055 387.765 720.075 399.188 729.805 399.976
C 729.656 402.06 727.049 402.072 725.38 402.332
C 720.883 403.032 716.256 403.199 712.126 400.968
C 701.727 395.35 705.931 379.231 695.379 374.128
C 693.179 373.063 690.111 373.277 687.739 373.282
C 687.153 376.026 687.625 379.259 687.631 382.068
C 687.645 388.648 687.844 395.265 687.677 401.836
C 683.331 402.385 678.793 401.465 674.412 401.978
C 673.82 400.987 674.253 399.152 674.271 398.006
C 674.328 394.507 674.295 391.005 674.29 387.506
C 674.269 374.447 674.446 361.357 674.135 348.302
C 674.071 345.649 673.843 342.785 672.187 340.579
C 670.705 338.605 667.424 339.131 667.798 336.362 Z
M 687.405 339.519
C 686.832 342.04 687.452 345.391 687.445 348.006
C 687.426 355.374 687.911 362.876 687.581 370.225
C 693.076 370.018 698.457 370.27 702.69 366.093
C 708.391 360.468 708.424 347.175 701.849 342.168
C 697.835 339.112 692.219 339.228 687.405 339.519 Z"
opacity="1" fill="rgb(12,29,47)" fill-rule="evenodd" />
<path d="
M 676.778 518.274
C 678.139 517.741 679.521 518.068 680.952 518.078
C 683.172 518.094 685.434 518.062 687.647 517.914
C 687.695 518.589 687.766 519.213 687.725 519.89
C 684.935 520.258 681.91 519.922 679.089 520.035
C 678.573 521.457 678.701 524.06 678.846 525.562
C 681.509 525.588 684.223 525.03 686.916 525.442
C 686.971 525.933 687.178 526.83 686.784 527.198
C 684.201 527.313 681.603 527.278 679.042 527.588
C 678.576 529.251 678.664 531.552 678.849 533.251
C 680.98 532.939 683.355 533.014 685.508 533.086
C 685.887 533.099 687.235 533.019 687.466 533.386
C 687.66 533.694 687.43 534.612 687.338 534.938
C 684.074 535.408 680.227 535.234 676.938 534.97
C 676.479 529.518 676.512 523.737 676.778 518.274 Z"
opacity="1" fill="rgb(9,13,14)" fill-rule="evenodd" />
<path d="
M 690.921 532.391
C 691.888 531.998 692.735 531.925 693.642 532.484
C 694.033 533.184 694.044 534.006 693.736 534.744
C 693.136 535.036 692.562 535.066 691.904 534.985
C 690.721 534.687 690.559 533.4 690.921 532.391 Z"
opacity="1" fill="rgb(15,19,19)" fill-rule="evenodd" />
<path d="
M 730.683 336.627
C 732.42 336.162 734.414 336.399 736.2 336.396
C 740.752 336.388 745.992 335.719 749.871 338.643
C 753.232 341.176 755.362 345.932 757.424 349.512
C 761.302 356.244 765.383 362.868 769.093 369.68
C 770.878 367.505 772.029 364.475 773.438 362.022
C 777.006 355.811 780.639 349.625 784.334 343.488
C 785.796 341.061 786.986 338.022 788.929 335.961
C 790.137 335.884 791.322 336.015 792.525 335.949
C 790.998 339.443 788.468 342.76 786.483 346.019
C 782.633 352.338 778.884 358.782 775.305 365.259
C 773.92 367.765 771.905 370.319 770.877 372.98
C 770.049 375.123 770.775 378.924 770.781 381.234
C 770.792 385.822 770.785 390.41 770.808 394.998
C 770.819 397.2 770.496 399.794 770.923 401.942
C 766.531 401.639 761.81 401.375 757.434 401.93
C 756.842 400.152 757.34 397.39 757.356 395.505
C 757.396 390.837 757.387 386.169 757.4 381.501
C 757.405 379.604 757.881 377.029 757.165 375.235
C 755.531 371.144 752.628 367.203 750.38 363.421
C 746.582 357.033 743.117 350.418 738.938 344.263
C 737.871 342.69 736.731 340.815 735.027 339.857
C 734.093 339.332 731.222 339.083 730.692 338.216
C 730.559 337.999 730.682 336.642 730.683 336.627 Z"
opacity="1" fill="rgb(12,28,45)" fill-rule="evenodd" />

</svg>